<?xml version="1.0" encoding="utf-8"?>
<!-- Generator: Adobe Illustrator 16.0.0, SVG Export Plug-In . SVG Version: 6.00 Build 0)  -->
<!DOCTYPE svg PUBLIC "-//W3C//DTD SVG 1.1//EN" "http://www.w3.org/Graphics/SVG/1.1/DTD/svg11.dtd">
<svg version="1.1" id="Capa_1" xmlns="http://www.w3.org/2000/svg" xmlns:xlink="http://www.w3.org/1999/xlink" x="0px" y="0px"
	 width="610" height="435" viewBox="150 30 610 435" enable-background="new 0 0 841.89 595.28" xml:space="preserve">
<text transform="matrix(1 0 0 1 251.4951 323.2754)" font-family="'MyriadPro-Bold'" font-size="37.2854">Comunidad de Madrid</text>
<text transform="matrix(1 0 0 1 304.5601 357.9482)"><tspan x="0" y="0" font-family="'MyriadPro-Regular'" font-size="17.1513">Empresa homologada e inscrita en el</tspan><tspan x="-66.332" y="20.581" font-family="'MyriadPro-Regular'" font-size="17.1513">Registro Oficial de Establecimientos y Servicios Biocidas</tspan><tspan x="90.018" y="41.163" font-family="'MyriadPro-Regular'" font-size="17.1513">de la C.A.M.</tspan></text>
<rect x="377.101" y="158.529" fill="#DE092B" width="118.563" height="118.562"/>
<g>
	<text transform="matrix(1 0 0 1 352.2329 434.3809)" font-family="'MyriadPro-Regular'" font-size="17.1513">Nº ROESB - 582 - CM - S</text>
	<rect x="339.862" y="415.017" fill="none" stroke="#000000" stroke-miterlimit="10" width="191.265" height="30.922"/>
</g>
<polygon fill="#FFFFFF" points="164.604,52.12 187.522,98.557 238.768,106.003 201.686,142.149 210.439,193.188 164.604,169.09 
	118.769,193.188 127.522,142.149 90.44,106.003 141.686,98.557 "/>
<polygon fill="#FFFFFF" points="283.098,127.266 284.764,127.807 285.794,129.224 285.794,130.976 284.764,132.394 283.098,132.935 
	281.432,132.394 280.402,130.976 280.402,129.224 281.432,127.807 "/>
<polygon fill="#FFFFFF" points="646.08,43.173 675.595,102.976 741.592,112.566 693.836,159.116 705.109,224.847 646.08,193.813 
	587.051,224.847 598.324,159.116 550.568,112.566 616.565,102.976 "/>
<polygon fill="#FFFFFF" points="181.18,175.537 182.513,175.97 183.337,177.104 183.337,178.506 182.513,179.64 181.18,180.073 
	179.847,179.64 179.023,178.506 179.023,177.104 179.847,175.97 "/>
<g>
	<g>
		<polygon fill="#FFFFFF" points="397.164,194.759 400.635,201.79 408.395,202.918 402.779,208.392 404.104,216.12 397.164,212.471 
			390.223,216.12 391.548,208.392 385.934,202.918 393.694,201.79 		"/>
		<polygon fill="#FFFFFF" points="423.309,194.759 426.779,201.79 434.539,202.918 428.925,208.392 430.25,216.12 423.309,212.471 
			416.368,216.12 417.693,208.392 412.078,202.918 419.839,201.79 		"/>
		<polygon fill="#FFFFFF" points="449.454,194.759 452.925,201.79 460.686,202.918 455.069,208.392 456.395,216.12 449.454,212.471 
			442.514,216.12 443.839,208.392 438.224,202.918 445.984,201.79 		"/>
		<polygon fill="#FFFFFF" points="475.6,194.759 479.07,201.79 486.83,202.918 481.215,208.392 482.54,216.12 475.6,212.471 
			468.659,216.12 469.984,208.392 464.368,202.918 472.129,201.79 		"/>
	</g>
	<g>
		<polygon fill="#FFFFFF" points="409.762,219.5 413.232,226.531 420.992,227.659 415.377,233.133 416.702,240.861 409.762,237.212 
			402.82,240.861 404.146,233.133 398.531,227.659 406.291,226.531 		"/>
		<polygon fill="#FFFFFF" points="435.907,219.5 439.377,226.531 447.138,227.659 441.521,233.133 442.848,240.861 435.907,237.212 
			428.966,240.861 430.291,233.133 424.676,227.659 432.437,226.531 		"/>
		<polygon fill="#FFFFFF" points="462.052,219.5 465.522,226.531 473.282,227.659 467.667,233.133 468.992,240.861 462.052,237.212 
			455.11,240.861 456.437,233.133 450.821,227.659 458.581,226.531 		"/>
	</g>
</g>
</svg>
